<svg width="136" height="41" viewBox="0 0 136 41" fill="none" xmlns="http://www.w3.org/2000/svg">
<path d="M2.928 19.4863V2.68627H9.576C11.352 2.68627 12.912 3.04627 14.256 3.76627C15.6 4.48627 16.64 5.47827 17.376 6.74227C18.128 8.00627 18.504 9.45427 18.504 11.0863C18.504 12.7183 18.128 14.1663 17.376 15.4303C16.64 16.6943 15.6 17.6863 14.256 18.4063C12.912 19.1263 11.352 19.4863 9.576 19.4863H2.928ZM4.152 18.3823H9.48C11.064 18.3823 12.44 18.0703 13.608 17.4463C14.776 16.8223 15.68 15.9663 16.32 14.8783C16.96 13.7743 17.28 12.5103 17.28 11.0863C17.28 9.66227 16.96 8.40627 16.32 7.31827C15.68 6.21427 14.776 5.35027 13.608 4.72627C12.44 4.10227 11.064 3.79027 9.48 3.79027H4.152V18.3823ZM29.0681 19.4863V16.6303L29.0201 16.1983V11.4943C29.0201 10.3263 28.7001 9.43827 28.0601 8.83027C27.4361 8.22227 26.5161 7.91827 25.3001 7.91827C24.4361 7.91827 23.6281 8.07027 22.8761 8.37427C22.1401 8.66227 21.5081 9.03827 20.9801 9.50227L20.3801 8.63827C21.0041 8.07827 21.7561 7.64627 22.6361 7.34227C23.5161 7.02227 24.4361 6.86227 25.3961 6.86227C26.9481 6.86227 28.1401 7.25427 28.9721 8.03827C29.8041 8.82227 30.2201 9.99027 30.2201 11.5423V19.4863H29.0681ZM24.5561 19.5823C23.6281 19.5823 22.8201 19.4383 22.1321 19.1503C21.4601 18.8463 20.9401 18.4223 20.5721 17.8783C20.2201 17.3343 20.0441 16.7103 20.0441 16.0063C20.0441 15.3663 20.1881 14.7903 20.4761 14.2783C20.7801 13.7503 21.2761 13.3263 21.9641 13.0063C22.6521 12.6703 23.5721 12.5023 24.7241 12.5023H29.3321V13.4383H24.7481C23.4521 13.4383 22.5401 13.6783 22.0121 14.1583C21.5001 14.6383 21.2441 15.2383 21.2441 15.9583C21.2441 16.7583 21.5481 17.3983 22.1561 17.8783C22.7641 18.3583 23.6201 18.5983 24.7241 18.5983C25.7801 18.5983 26.6681 18.3583 27.3881 17.8783C28.1241 17.3983 28.6681 16.7023 29.0201 15.7903L29.3561 16.6063C29.0201 17.5183 28.4441 18.2463 27.6281 18.7903C26.8281 19.3183 25.8041 19.5823 24.5561 19.5823ZM33.4419 24.2383C32.8659 24.2383 32.3219 24.1423 31.8099 23.9503C31.3139 23.7583 30.8899 23.4783 30.5379 23.1103L31.1379 22.1983C31.4579 22.5343 31.8019 22.7823 32.1699 22.9423C32.5539 23.1023 32.9859 23.1823 33.4659 23.1823C34.0419 23.1823 34.5459 23.0223 34.9779 22.7023C35.4259 22.3823 35.8419 21.7983 36.2259 20.9503L37.0899 19.0303L37.2579 18.8143L42.5619 6.95827H43.7859L37.3539 21.1903C37.0179 21.9583 36.6499 22.5583 36.2499 22.9903C35.8659 23.4383 35.4419 23.7583 34.9779 23.9503C34.5139 24.1423 34.0019 24.2383 33.4419 24.2383ZM37.0659 19.7983L31.2579 6.95827H32.5299L37.8099 18.7423L37.0659 19.7983ZM22.2362 39.6063C20.9882 39.6063 19.8042 39.3983 18.6842 38.9823C17.5802 38.5503 16.7242 37.9983 16.1162 37.3263L16.6682 36.4143C17.2442 37.0063 18.0282 37.5103 19.0202 37.9263C20.0282 38.3263 21.0922 38.5263 22.2122 38.5263C23.3322 38.5263 24.2442 38.3823 24.9482 38.0943C25.6682 37.7903 26.1962 37.3903 26.5322 36.8943C26.8842 36.3983 27.0602 35.8463 27.0602 35.2383C27.0602 34.5183 26.8682 33.9423 26.4842 33.5103C26.1002 33.0783 25.5962 32.7343 24.9722 32.4783C24.3482 32.2223 23.6682 32.0063 22.9322 31.8303C22.1962 31.6543 21.4522 31.4703 20.7002 31.2783C19.9482 31.0703 19.2602 30.8063 18.6362 30.4863C18.0122 30.1663 17.5082 29.7343 17.1242 29.1903C16.7562 28.6303 16.5722 27.9103 16.5722 27.0303C16.5722 26.2303 16.7802 25.4943 17.1962 24.8223C17.6122 24.1503 18.2602 23.6063 19.1402 23.1903C20.0202 22.7743 21.1482 22.5663 22.5242 22.5663C23.4522 22.5663 24.3642 22.7023 25.2602 22.9743C26.1722 23.2463 26.9482 23.6143 27.5882 24.0783L27.1322 25.0623C26.4282 24.5823 25.6682 24.2303 24.8522 24.0063C24.0522 23.7663 23.2762 23.6463 22.5242 23.6463C21.4522 23.6463 20.5642 23.7983 19.8602 24.1023C19.1562 24.4063 18.6362 24.8143 18.3002 25.3263C17.9642 25.8223 17.7962 26.3823 17.7962 27.0063C17.7962 27.7263 17.9802 28.3023 18.3482 28.7343C18.7322 29.1663 19.2362 29.5103 19.8602 29.7663C20.4842 30.0223 21.1722 30.2383 21.9242 30.4143C22.6762 30.5903 23.4202 30.7823 24.1562 30.9903C24.8922 31.1823 25.5722 31.4383 26.1962 31.7583C26.8202 32.0783 27.3242 32.5103 27.7082 33.0543C28.0922 33.5983 28.2842 34.3023 28.2842 35.1663C28.2842 35.9503 28.0682 36.6863 27.6362 37.3743C27.2042 38.0463 26.5402 38.5903 25.6442 39.0063C24.7642 39.4063 23.6282 39.6063 22.2362 39.6063ZM38.7572 39.4863V36.6303L38.7092 36.1983V31.4943C38.7092 30.3263 38.3892 29.4383 37.7492 28.8303C37.1252 28.2223 36.2052 27.9183 34.9892 27.9183C34.1252 27.9183 33.3172 28.0703 32.5652 28.3743C31.8292 28.6623 31.1972 29.0383 30.6692 29.5023L30.0692 28.6383C30.6932 28.0783 31.4452 27.6463 32.3252 27.3423C33.2052 27.0223 34.1252 26.8623 35.0852 26.8623C36.6372 26.8623 37.8292 27.2543 38.6612 28.0383C39.4932 28.8223 39.9092 29.9903 39.9092 31.5423V39.4863H38.7572ZM34.2452 39.5823C33.3172 39.5823 32.5092 39.4383 31.8212 39.1503C31.1492 38.8463 30.6292 38.4223 30.2612 37.8783C29.9092 37.3343 29.7332 36.7103 29.7332 36.0063C29.7332 35.3663 29.8772 34.7903 30.1652 34.2783C30.4692 33.7503 30.9652 33.3263 31.6532 33.0063C32.3412 32.6703 33.2612 32.5023 34.4132 32.5023H39.0212V33.4383H34.4372C33.1412 33.4383 32.2292 33.6783 31.7012 34.1583C31.1892 34.6383 30.9332 35.2383 30.9332 35.9583C30.9332 36.7583 31.2372 37.3983 31.8452 37.8783C32.4532 38.3583 33.3092 38.5983 34.4132 38.5983C35.4692 38.5983 36.3572 38.3583 37.0772 37.8783C37.8132 37.3983 38.3572 36.7023 38.7092 35.7903L39.0452 36.6063C38.7092 37.5183 38.1332 38.2463 37.3172 38.7903C36.5172 39.3183 35.4932 39.5823 34.2452 39.5823ZM49.7734 26.8623C50.7974 26.8623 51.6854 27.0623 52.4374 27.4623C53.2054 27.8463 53.7974 28.4383 54.2134 29.2383C54.6454 30.0223 54.8614 30.9983 54.8614 32.1663V39.4863H53.6614V32.2623C53.6614 30.8543 53.3014 29.7823 52.5814 29.0463C51.8774 28.3103 50.8854 27.9423 49.6054 27.9423C48.6294 27.9423 47.7814 28.1423 47.0614 28.5423C46.3414 28.9423 45.7894 29.5023 45.4054 30.2223C45.0374 30.9423 44.8534 31.8063 44.8534 32.8143V39.4863H43.6534V26.9583H44.8054V30.4383L44.6374 30.0543C45.0214 29.0623 45.6534 28.2863 46.5334 27.7263C47.4134 27.1503 48.4934 26.8623 49.7734 26.8623ZM62.2498 39.5823C61.1458 39.5823 60.2978 39.2783 59.7058 38.6703C59.1298 38.0623 58.8418 37.2303 58.8418 36.1743V24.2223H60.0418V36.0543C60.0418 36.8543 60.2418 37.4703 60.6418 37.9023C61.0418 38.3343 61.6178 38.5503 62.3698 38.5503C63.1538 38.5503 63.8018 38.3183 64.3138 37.8543L64.8178 38.6943C64.4978 38.9983 64.1058 39.2223 63.6418 39.3663C63.1938 39.5103 62.7298 39.5823 62.2498 39.5823ZM56.5378 27.9903V26.9583H64.0258V27.9903H56.5378ZM74.8603 39.4863V36.6303L74.8123 36.1983V31.4943C74.8123 30.3263 74.4923 29.4383 73.8523 28.8303C73.2283 28.2223 72.3083 27.9183 71.0923 27.9183C70.2283 27.9183 69.4203 28.0703 68.6683 28.3743C67.9323 28.6623 67.3003 29.0383 66.7723 29.5023L66.1723 28.6383C66.7963 28.0783 67.5483 27.6463 68.4283 27.3423C69.3083 27.0223 70.2283 26.8623 71.1883 26.8623C72.7403 26.8623 73.9323 27.2543 74.7643 28.0383C75.5963 28.8223 76.0123 29.9903 76.0123 31.5423V39.4863H74.8603ZM70.3483 39.5823C69.4203 39.5823 68.6123 39.4383 67.9243 39.1503C67.2523 38.8463 66.7323 38.4223 66.3643 37.8783C66.0123 37.3343 65.8363 36.7103 65.8363 36.0063C65.8363 35.3663 65.9803 34.7903 66.2683 34.2783C66.5723 33.7503 67.0683 33.3263 67.7563 33.0063C68.4443 32.6703 69.3643 32.5023 70.5163 32.5023H75.1243V33.4383H70.5403C69.2443 33.4383 68.3323 33.6783 67.8043 34.1583C67.2923 34.6383 67.0363 35.2383 67.0363 35.9583C67.0363 36.7583 67.3403 37.3983 67.9483 37.8783C68.5563 38.3583 69.4123 38.5983 70.5163 38.5983C71.5723 38.5983 72.4603 38.3583 73.1803 37.8783C73.9163 37.3983 74.4603 36.7023 74.8123 35.7903L75.1483 36.6063C74.8123 37.5183 74.2363 38.2463 73.4203 38.7903C72.6203 39.3183 71.5963 39.5823 70.3483 39.5823ZM85.8765 26.8623C86.9005 26.8623 87.7885 27.0623 88.5405 27.4623C89.3085 27.8463 89.9005 28.4383 90.3165 29.2383C90.7485 30.0223 90.9645 30.9983 90.9645 32.1663V39.4863H89.7645V32.2623C89.7645 30.8543 89.4045 29.7823 88.6845 29.0463C87.9805 28.3103 86.9885 27.9423 85.7085 27.9423C84.7325 27.9423 83.8845 28.1423 83.1645 28.5423C82.4445 28.9423 81.8925 29.5023 81.5085 30.2223C81.1405 30.9423 80.9565 31.8063 80.9565 32.8143V39.4863H79.7565V26.9583H80.9085V30.4383L80.7405 30.0543C81.1245 29.0623 81.7565 28.2863 82.6365 27.7263C83.5165 27.1503 84.5965 26.8623 85.8765 26.8623ZM102.601 39.4863V36.6303L102.553 36.1983V31.4943C102.553 30.3263 102.233 29.4383 101.593 28.8303C100.969 28.2223 100.049 27.9183 98.8329 27.9183C97.9689 27.9183 97.1609 28.0703 96.4089 28.3743C95.6729 28.6623 95.0409 29.0383 94.5129 29.5023L93.9129 28.6383C94.5369 28.0783 95.2889 27.6463 96.1689 27.3423C97.0489 27.0223 97.9689 26.8623 98.9289 26.8623C100.481 26.8623 101.673 27.2543 102.505 28.0383C103.337 28.8223 103.753 29.9903 103.753 31.5423V39.4863H102.601ZM98.0889 39.5823C97.1609 39.5823 96.3529 39.4383 95.6649 39.1503C94.9929 38.8463 94.4729 38.4223 94.1049 37.8783C93.7529 37.3343 93.5769 36.7103 93.5769 36.0063C93.5769 35.3663 93.7209 34.7903 94.0089 34.2783C94.3129 33.7503 94.8089 33.3263 95.4969 33.0063C96.1849 32.6703 97.1049 32.5023 98.2569 32.5023H102.865V33.4383H98.2809C96.9849 33.4383 96.0729 33.6783 95.5449 34.1583C95.0329 34.6383 94.7769 35.2383 94.7769 35.9583C94.7769 36.7583 95.0809 37.3983 95.6889 37.8783C96.2969 38.3583 97.1529 38.5983 98.2569 38.5983C99.3129 38.5983 100.201 38.3583 100.921 37.8783C101.657 37.3983 102.201 36.7023 102.553 35.7903L102.889 36.6063C102.553 37.5183 101.977 38.2463 101.161 38.7903C100.361 39.3183 99.3369 39.5823 98.0889 39.5823Z" fill="white"/>
<path fill-rule="evenodd" clip-rule="evenodd" d="M123.31 8.92733C122.763 16.8512 120.99 19.1881 114.98 19.9018C112.975 20.1395 111.667 20.3738 112.074 20.4214C117.528 21.064 119.199 21.6251 120.756 23.3366C122.542 25.2992 122.886 26.5186 123.419 32.7914L123.776 36.9863L123.848 33.071C123.942 27.9336 124.613 25.3725 126.396 23.3506C127.883 21.6648 128.497 21.4276 133.287 20.6831L136 20.2614L132.354 19.8654C126.221 19.1982 124.389 16.8708 123.949 9.18461L123.651 3.98627L123.31 8.92733Z" fill="url(#paint0_linear_1116_1846)"/>
<defs>
<linearGradient id="paint0_linear_1116_1846" x1="132" y1="14" x2="124.019" y2="28.785" gradientUnits="userSpaceOnUse">
<stop stop-color="#B67AED" stop-opacity="0.73"/>
<stop offset="1" stop-color="#99FFDA" stop-opacity="0.77"/>
</linearGradient>
</defs>
</svg>
